# xmcd
#
# Track frame offsets: 
#        150
#        14526
#        28445
#        43968
#        61759
#        74610
#        87990
#        104265
#        117704
#        131755
#        146639
#        161751
#
# Disc length: 2337 seconds
#
# Revision: 1
# Processed by: cddbd v1.5.2PL0 Copyright (c) Steve Scherf et al.
# Submitted via: ExactAudioCopy v0.95b4
#
DISCID=bb091f0c
DTITLE=Various Artisits - Ultimate Country Classics Volume 4 [CD1]
DYEAR=2003
DGENRE=country
TTITLE0=Travis Tritt - Country Club
TTITLE1=Willie Nelson - My Heroes Have Always Been Cowboys
TTITLE2=Dolly Parton - Think about love
TTITLE3=Ronnie Milsap - Nobody Likes Sad Songs
TTITLE4=Dwight Yoakam and Buck Owens - Streets of Bakersfeild
TTITLE5=Conway Twitty - Slow Hand
TTITLE6=Johnny Lee - Lookin' For Love
TTITLE7=The Bellamy Brothers - Do You Love As Good As You Look
TTITLE8=Johnny Paycheck - Friend, Lover, Wife
TTITLE9=The Nitty Gritty Dirt Band - Long Hard Road (The Sharecropper'
TTITLE9=s Dream)
TTITLE10=Eddie Rabbitt - You Don't Love Me Anymore
TTITLE11=John Anderson - Swingin'
EXTD=
EXTT0=
EXTT1=
EXTT2=
EXTT3=
EXTT4=
EXTT5=
EXTT6=
EXTT7=
EXTT8=
EXTT9=
EXTT10=
EXTT11=
PLAYORDER=
